<mxfile host="app.diagrams.net" modified="2023-11-07T02:33:17.048Z" agent="Mozilla/5.0 (Windows NT 10.0; Win64; x64; rv:109.0) Gecko/20100101 Firefox/115.0" etag="JfKGgFrtrM1VySdJxJ6X" version="21.8.2" type="github">
  <diagram name="Page-1" id="aFAbqYWzUuHMBwHTclKY">
    <mxGraphModel dx="1000" dy="550" grid="1" gridSize="10" guides="1" tooltips="1" connect="1" arrows="1" fold="1" page="1" pageScale="1" pageWidth="850" pageHeight="1100" math="0" shadow="0">
      <root>
        <mxCell id="0" />
        <mxCell id="1" parent="0" />
        <mxCell id="HePd4YPh0hte_094SBTR-3" style="edgeStyle=orthogonalEdgeStyle;rounded=1;orthogonalLoop=1;jettySize=auto;html=1;exitX=1;exitY=0.5;exitDx=0;exitDy=0;entryX=0;entryY=0.25;entryDx=0;entryDy=0;entryPerimeter=0;" edge="1" parent="1" source="HePd4YPh0hte_094SBTR-1" target="HePd4YPh0hte_094SBTR-4">
          <mxGeometry relative="1" as="geometry">
            <mxPoint x="178" y="180" as="targetPoint" />
          </mxGeometry>
        </mxCell>
        <mxCell id="HePd4YPh0hte_094SBTR-1" value="&lt;font style=&quot;font-size: 16px;&quot;&gt;Perim Offset&lt;br&gt;&lt;/font&gt;" style="rounded=1;whiteSpace=wrap;html=1;perimeterSpacing=12;" vertex="1" parent="1">
          <mxGeometry y="120" width="120" height="40" as="geometry" />
        </mxCell>
        <mxCell id="HePd4YPh0hte_094SBTR-4" value="&lt;font style=&quot;font-size: 16px;&quot;&gt;AZ:Buffer&lt;/font&gt;" style="shape=or;whiteSpace=wrap;html=1;perimeterSpacing=12;" vertex="1" parent="1">
          <mxGeometry x="190" y="120" width="110" height="160" as="geometry" />
        </mxCell>
        <mxCell id="HePd4YPh0hte_094SBTR-5" value="&lt;font style=&quot;font-size: 16px;&quot;&gt;GIS&lt;br&gt;&lt;/font&gt;" style="rounded=1;whiteSpace=wrap;html=1;perimeterSpacing=12;" vertex="1" parent="1">
          <mxGeometry y="240" width="120" height="40" as="geometry" />
        </mxCell>
        <mxCell id="HePd4YPh0hte_094SBTR-7" style="edgeStyle=orthogonalEdgeStyle;rounded=1;orthogonalLoop=1;jettySize=auto;html=1;entryX=0;entryY=0.75;entryDx=0;entryDy=0;entryPerimeter=0;fontFamily=Helvetica;fontSize=12;fontColor=default;" edge="1" parent="1" source="HePd4YPh0hte_094SBTR-5" target="HePd4YPh0hte_094SBTR-4">
          <mxGeometry relative="1" as="geometry" />
        </mxCell>
        <mxCell id="HePd4YPh0hte_094SBTR-8" value="&lt;font style=&quot;font-size: 16px;&quot;&gt;AZ:Core Area&lt;/font&gt;" style="rounded=1;whiteSpace=wrap;html=1;strokeColor=default;align=center;verticalAlign=middle;fontFamily=Helvetica;fontSize=12;fontColor=default;fillColor=default;perimeterSpacing=12;" vertex="1" parent="1">
          <mxGeometry x="480" y="30" width="120" height="40" as="geometry" />
        </mxCell>
        <mxCell id="HePd4YPh0hte_094SBTR-10" value="&lt;font style=&quot;font-size: 16px;&quot;&gt;AZ:Perim Area&lt;br&gt;&lt;/font&gt;" style="rounded=1;whiteSpace=wrap;html=1;strokeColor=default;align=center;verticalAlign=middle;fontFamily=Helvetica;fontSize=12;fontColor=default;fillColor=default;perimeterSpacing=12;" vertex="1" parent="1">
          <mxGeometry x="480" y="310" width="120" height="40" as="geometry" />
        </mxCell>
        <mxCell id="HePd4YPh0hte_094SBTR-13" value="" style="endArrow=classic;html=1;rounded=1;fontFamily=Helvetica;fontSize=12;fontColor=default;exitX=1;exitY=0.5;exitDx=0;exitDy=0;exitPerimeter=0;entryX=0;entryY=0.5;entryDx=0;entryDy=0;" edge="1" parent="1" source="HePd4YPh0hte_094SBTR-4" target="HePd4YPh0hte_094SBTR-8">
          <mxGeometry width="50" height="50" relative="1" as="geometry">
            <mxPoint x="400" y="330" as="sourcePoint" />
            <mxPoint x="450" y="280" as="targetPoint" />
            <Array as="points">
              <mxPoint x="400" y="200" />
              <mxPoint x="400" y="50" />
            </Array>
          </mxGeometry>
        </mxCell>
        <mxCell id="HePd4YPh0hte_094SBTR-15" value="" style="endArrow=classic;html=1;rounded=1;fontFamily=Helvetica;fontSize=12;fontColor=default;exitX=1;exitY=0.5;exitDx=0;exitDy=0;exitPerimeter=0;entryX=0;entryY=0.5;entryDx=0;entryDy=0;" edge="1" parent="1" source="HePd4YPh0hte_094SBTR-4" target="HePd4YPh0hte_094SBTR-10">
          <mxGeometry width="50" height="50" relative="1" as="geometry">
            <mxPoint x="320" y="210" as="sourcePoint" />
            <mxPoint x="450" y="280" as="targetPoint" />
            <Array as="points">
              <mxPoint x="400" y="200" />
              <mxPoint x="400" y="330" />
            </Array>
          </mxGeometry>
        </mxCell>
        <mxCell id="HePd4YPh0hte_094SBTR-16" value="&lt;font style=&quot;font-size: 16px;&quot;&gt;AZ:Core / Perim&lt;/font&gt;" style="rounded=1;whiteSpace=wrap;html=1;strokeColor=default;align=center;verticalAlign=middle;fontFamily=Helvetica;fontSize=12;fontColor=default;fillColor=default;perimeterSpacing=12;" vertex="1" parent="1">
          <mxGeometry x="480" y="180" width="120" height="40" as="geometry" />
        </mxCell>
        <mxCell id="HePd4YPh0hte_094SBTR-17" value="" style="endArrow=classic;html=1;rounded=1;fontFamily=Helvetica;fontSize=12;fontColor=default;exitX=1;exitY=0.5;exitDx=0;exitDy=0;exitPerimeter=0;entryX=0;entryY=0.5;entryDx=0;entryDy=0;" edge="1" parent="1" source="HePd4YPh0hte_094SBTR-4" target="HePd4YPh0hte_094SBTR-16">
          <mxGeometry width="50" height="50" relative="1" as="geometry">
            <mxPoint x="310" y="250" as="sourcePoint" />
            <mxPoint x="500" y="250" as="targetPoint" />
          </mxGeometry>
        </mxCell>
        <mxCell id="HePd4YPh0hte_094SBTR-25" style="edgeStyle=orthogonalEdgeStyle;rounded=1;orthogonalLoop=1;jettySize=auto;html=1;entryX=0;entryY=0.25;entryDx=0;entryDy=0;fontFamily=Helvetica;fontSize=12;fontColor=default;" edge="1" parent="1" source="HePd4YPh0hte_094SBTR-18" target="HePd4YPh0hte_094SBTR-24">
          <mxGeometry relative="1" as="geometry">
            <Array as="points">
              <mxPoint x="400" y="390" />
              <mxPoint x="400" y="429" />
            </Array>
          </mxGeometry>
        </mxCell>
        <mxCell id="HePd4YPh0hte_094SBTR-18" value="&lt;font style=&quot;font-size: 16px;&quot;&gt;GFA&lt;/font&gt;" style="rounded=1;whiteSpace=wrap;html=1;strokeColor=default;align=center;verticalAlign=middle;fontFamily=Helvetica;fontSize=12;fontColor=default;fillColor=default;perimeterSpacing=12;" vertex="1" parent="1">
          <mxGeometry x="200" y="370" width="120" height="40" as="geometry" />
        </mxCell>
        <mxCell id="HePd4YPh0hte_094SBTR-26" style="edgeStyle=orthogonalEdgeStyle;rounded=1;orthogonalLoop=1;jettySize=auto;html=1;entryX=0;entryY=0.75;entryDx=0;entryDy=0;fontFamily=Helvetica;fontSize=12;fontColor=default;" edge="1" parent="1" source="HePd4YPh0hte_094SBTR-19" target="HePd4YPh0hte_094SBTR-24">
          <mxGeometry relative="1" as="geometry">
            <Array as="points">
              <mxPoint x="400" y="500" />
              <mxPoint x="400" y="461" />
            </Array>
          </mxGeometry>
        </mxCell>
        <mxCell id="HePd4YPh0hte_094SBTR-19" value="&lt;font style=&quot;font-size: 16px;&quot;&gt;Facade Area&lt;/font&gt;" style="rounded=1;whiteSpace=wrap;html=1;strokeColor=default;align=center;verticalAlign=middle;fontFamily=Helvetica;fontSize=12;fontColor=default;fillColor=default;perimeterSpacing=12;" vertex="1" parent="1">
          <mxGeometry x="200" y="480" width="120" height="40" as="geometry" />
        </mxCell>
        <mxCell id="HePd4YPh0hte_094SBTR-20" value="" style="endArrow=classic;html=1;rounded=1;fontFamily=Helvetica;fontSize=12;fontColor=default;exitX=1;exitY=0.5;exitDx=0;exitDy=0;entryX=0;entryY=0.5;entryDx=0;entryDy=0;" edge="1" parent="1" source="HePd4YPh0hte_094SBTR-5" target="HePd4YPh0hte_094SBTR-18">
          <mxGeometry width="50" height="50" relative="1" as="geometry">
            <mxPoint x="170" y="310" as="sourcePoint" />
            <mxPoint x="220" y="260" as="targetPoint" />
            <Array as="points">
              <mxPoint x="150" y="260" />
              <mxPoint x="150" y="390" />
            </Array>
          </mxGeometry>
        </mxCell>
        <mxCell id="HePd4YPh0hte_094SBTR-22" value="" style="endArrow=classic;html=1;rounded=1;fontFamily=Helvetica;fontSize=12;fontColor=default;exitX=1;exitY=0.5;exitDx=0;exitDy=0;entryX=0;entryY=0.5;entryDx=0;entryDy=0;" edge="1" parent="1" source="HePd4YPh0hte_094SBTR-5" target="HePd4YPh0hte_094SBTR-19">
          <mxGeometry width="50" height="50" relative="1" as="geometry">
            <mxPoint x="160" y="380" as="sourcePoint" />
            <mxPoint x="210" y="330" as="targetPoint" />
            <Array as="points">
              <mxPoint x="150" y="260" />
              <mxPoint x="150" y="500" />
            </Array>
          </mxGeometry>
        </mxCell>
        <mxCell id="HePd4YPh0hte_094SBTR-24" value="&lt;font style=&quot;font-size: 16px;&quot;&gt;GFA / Facade&lt;br&gt;&lt;/font&gt;" style="rounded=1;whiteSpace=wrap;html=1;strokeColor=default;align=center;verticalAlign=middle;fontFamily=Helvetica;fontSize=12;fontColor=default;fillColor=default;perimeterSpacing=12;" vertex="1" parent="1">
          <mxGeometry x="480" y="425" width="120" height="40" as="geometry" />
        </mxCell>
      </root>
    </mxGraphModel>
  </diagram>
</mxfile>
